<mxfile host="app.diagrams.net" modified="2024-06-01T18:24:49.177Z" agent="Mozilla/5.0 (X11; Linux x86_64) AppleWebKit/537.36 (KHTML, like Gecko) Chrome/125.0.0.0 Safari/537.36" etag="hR_9azlj3T-TSmanLjk3" version="24.4.13" type="google">
  <diagram name="Page-1" id="03018318-947c-dd8e-b7a3-06fadd420f32">
    <mxGraphModel grid="1" page="1" gridSize="10" guides="1" tooltips="1" connect="1" arrows="1" fold="1" pageScale="1" pageWidth="1100" pageHeight="850" background="#ffffff" math="0" shadow="0">
      <root>
        <mxCell id="0" />
        <mxCell id="1" parent="0" />
        <mxCell id="ZyAtSVCC6lzZeVUkMO0P-5" value="" style="rounded=0;whiteSpace=wrap;html=1;fillColor=#f5f5f5;fontColor=#333333;strokeColor=#666666;" vertex="1" parent="1">
          <mxGeometry y="2035" width="1100" height="225" as="geometry" />
        </mxCell>
        <mxCell id="ZyAtSVCC6lzZeVUkMO0P-3" value="" style="rounded=0;whiteSpace=wrap;html=1;" vertex="1" parent="1">
          <mxGeometry y="130" width="1100" height="40" as="geometry" />
        </mxCell>
        <mxCell id="ZyAtSVCC6lzZeVUkMO0P-2" value="" style="rounded=0;whiteSpace=wrap;html=1;fillColor=#f5f5f5;fontColor=#333333;strokeColor=#666666;" vertex="1" parent="1">
          <mxGeometry y="40" width="1100" height="90" as="geometry" />
        </mxCell>
        <mxCell id="ZyAtSVCC6lzZeVUkMO0P-1" value="" style="rounded=0;whiteSpace=wrap;html=1;" vertex="1" parent="1">
          <mxGeometry width="1100" height="40" as="geometry" />
        </mxCell>
        <mxCell id="YPrZ4P48iWF1rKAgXMPz-83" value="" style="verticalLabelPosition=bottom;shadow=0;dashed=0;align=center;html=1;verticalAlign=top;strokeWidth=1;shape=mxgraph.mockup.graphics.simpleIcon;strokeColor=#999999;" vertex="1" parent="1">
          <mxGeometry x="32.5" y="360" width="1027.5" height="260" as="geometry" />
        </mxCell>
        <mxCell id="YPrZ4P48iWF1rKAgXMPz-6" value="LOGO" style="rounded=1;whiteSpace=wrap;html=1;strokeColor=default;" vertex="1" parent="1">
          <mxGeometry x="130" y="55" width="120" height="60" as="geometry" />
        </mxCell>
        <mxCell id="YPrZ4P48iWF1rKAgXMPz-8" value="Buscador" style="rounded=1;whiteSpace=wrap;html=1;" vertex="1" parent="1">
          <mxGeometry x="300" y="70" width="400" height="30" as="geometry" />
        </mxCell>
        <mxCell id="YPrZ4P48iWF1rKAgXMPz-9" value="Telefono" style="text;html=1;align=center;verticalAlign=middle;whiteSpace=wrap;rounded=0;" vertex="1" parent="1">
          <mxGeometry x="660" y="10" width="60" height="30" as="geometry" />
        </mxCell>
        <mxCell id="YPrZ4P48iWF1rKAgXMPz-11" value="correo@correo.com" style="text;html=1;align=center;verticalAlign=middle;whiteSpace=wrap;rounded=0;" vertex="1" parent="1">
          <mxGeometry x="760" y="10" width="60" height="30" as="geometry" />
        </mxCell>
        <mxCell id="YPrZ4P48iWF1rKAgXMPz-12" value="Direccion" style="text;html=1;align=center;verticalAlign=middle;whiteSpace=wrap;rounded=0;" vertex="1" parent="1">
          <mxGeometry x="860" y="10" width="60" height="30" as="geometry" />
        </mxCell>
        <mxCell id="YPrZ4P48iWF1rKAgXMPz-14" value="" style="shape=sumEllipse;perimeter=ellipsePerimeter;whiteSpace=wrap;html=1;backgroundOutline=1;" vertex="1" parent="1">
          <mxGeometry x="740" y="70" width="30" height="30" as="geometry" />
        </mxCell>
        <mxCell id="YPrZ4P48iWF1rKAgXMPz-15" value="" style="shape=sumEllipse;perimeter=ellipsePerimeter;whiteSpace=wrap;html=1;backgroundOutline=1;" vertex="1" parent="1">
          <mxGeometry x="780" y="70" width="30" height="30" as="geometry" />
        </mxCell>
        <mxCell id="YPrZ4P48iWF1rKAgXMPz-16" value="" style="shape=sumEllipse;perimeter=ellipsePerimeter;whiteSpace=wrap;html=1;backgroundOutline=1;" vertex="1" parent="1">
          <mxGeometry x="820" y="70" width="30" height="30" as="geometry" />
        </mxCell>
        <mxCell id="YPrZ4P48iWF1rKAgXMPz-17" value="" style="shape=sumEllipse;perimeter=ellipsePerimeter;whiteSpace=wrap;html=1;backgroundOutline=1;" vertex="1" parent="1">
          <mxGeometry x="860" y="70" width="30" height="30" as="geometry" />
        </mxCell>
        <mxCell id="YPrZ4P48iWF1rKAgXMPz-18" value="" style="shape=sumEllipse;perimeter=ellipsePerimeter;whiteSpace=wrap;html=1;backgroundOutline=1;" vertex="1" parent="1">
          <mxGeometry x="900" y="70" width="30" height="30" as="geometry" />
        </mxCell>
        <mxCell id="YPrZ4P48iWF1rKAgXMPz-21" value="Menu Item 1" style="text;html=1;align=center;verticalAlign=middle;whiteSpace=wrap;rounded=0;" vertex="1" parent="1">
          <mxGeometry x="113" y="140" width="90" height="30" as="geometry" />
        </mxCell>
        <mxCell id="YPrZ4P48iWF1rKAgXMPz-22" value="Menu Item 2" style="text;html=1;align=center;verticalAlign=middle;whiteSpace=wrap;rounded=0;" vertex="1" parent="1">
          <mxGeometry x="245" y="140" width="90" height="30" as="geometry" />
        </mxCell>
        <mxCell id="YPrZ4P48iWF1rKAgXMPz-23" value="Menu Item 3" style="text;html=1;align=center;verticalAlign=middle;whiteSpace=wrap;rounded=0;" vertex="1" parent="1">
          <mxGeometry x="376" y="140" width="90" height="30" as="geometry" />
        </mxCell>
        <mxCell id="YPrZ4P48iWF1rKAgXMPz-24" value="Menu Item 4" style="text;html=1;align=center;verticalAlign=middle;whiteSpace=wrap;rounded=0;" vertex="1" parent="1">
          <mxGeometry x="508" y="140" width="90" height="30" as="geometry" />
        </mxCell>
        <mxCell id="YPrZ4P48iWF1rKAgXMPz-25" value="Menu Item 5" style="text;html=1;align=center;verticalAlign=middle;whiteSpace=wrap;rounded=0;" vertex="1" parent="1">
          <mxGeometry x="640" y="140" width="90" height="30" as="geometry" />
        </mxCell>
        <mxCell id="YPrZ4P48iWF1rKAgXMPz-26" value="Menu Item 6" style="text;html=1;align=center;verticalAlign=middle;whiteSpace=wrap;rounded=0;" vertex="1" parent="1">
          <mxGeometry x="771" y="140" width="90" height="30" as="geometry" />
        </mxCell>
        <mxCell id="YPrZ4P48iWF1rKAgXMPz-27" value="Menu Item 7" style="text;html=1;align=center;verticalAlign=middle;whiteSpace=wrap;rounded=0;" vertex="1" parent="1">
          <mxGeometry x="903" y="140" width="90" height="30" as="geometry" />
        </mxCell>
        <mxCell id="YPrZ4P48iWF1rKAgXMPz-28" value="" style="shape=ext;double=1;rounded=0;whiteSpace=wrap;html=1;" vertex="1" parent="1">
          <mxGeometry x="80" y="164" width="940" height="186" as="geometry" />
        </mxCell>
        <mxCell id="YPrZ4P48iWF1rKAgXMPz-36" value="" style="group" connectable="0" vertex="1" parent="1">
          <mxGeometry x="90" y="180" width="100" height="82" as="geometry" />
        </mxCell>
        <mxCell id="YPrZ4P48iWF1rKAgXMPz-29" value="Producto" style="text;html=1;align=center;verticalAlign=middle;whiteSpace=wrap;rounded=0;" vertex="1" parent="YPrZ4P48iWF1rKAgXMPz-36">
          <mxGeometry width="90" height="30" as="geometry" />
        </mxCell>
        <mxCell id="YPrZ4P48iWF1rKAgXMPz-30" value="* Item" style="text;html=1;align=center;verticalAlign=middle;whiteSpace=wrap;rounded=0;" vertex="1" parent="YPrZ4P48iWF1rKAgXMPz-36">
          <mxGeometry x="10" y="20" width="90" height="30" as="geometry" />
        </mxCell>
        <mxCell id="YPrZ4P48iWF1rKAgXMPz-31" value="* Item" style="text;html=1;align=center;verticalAlign=middle;whiteSpace=wrap;rounded=0;" vertex="1" parent="YPrZ4P48iWF1rKAgXMPz-36">
          <mxGeometry x="10" y="35" width="90" height="30" as="geometry" />
        </mxCell>
        <mxCell id="YPrZ4P48iWF1rKAgXMPz-32" value="* Item" style="text;html=1;align=center;verticalAlign=middle;whiteSpace=wrap;rounded=0;" vertex="1" parent="YPrZ4P48iWF1rKAgXMPz-36">
          <mxGeometry x="10" y="52" width="90" height="30" as="geometry" />
        </mxCell>
        <mxCell id="YPrZ4P48iWF1rKAgXMPz-37" value="" style="group" connectable="0" vertex="1" parent="1">
          <mxGeometry x="90" y="258" width="100" height="82" as="geometry" />
        </mxCell>
        <mxCell id="YPrZ4P48iWF1rKAgXMPz-38" value="Producto" style="text;html=1;align=center;verticalAlign=middle;whiteSpace=wrap;rounded=0;" vertex="1" parent="YPrZ4P48iWF1rKAgXMPz-37">
          <mxGeometry width="90" height="30" as="geometry" />
        </mxCell>
        <mxCell id="YPrZ4P48iWF1rKAgXMPz-39" value="* Item" style="text;html=1;align=center;verticalAlign=middle;whiteSpace=wrap;rounded=0;" vertex="1" parent="YPrZ4P48iWF1rKAgXMPz-37">
          <mxGeometry x="10" y="20" width="90" height="30" as="geometry" />
        </mxCell>
        <mxCell id="YPrZ4P48iWF1rKAgXMPz-40" value="* Item" style="text;html=1;align=center;verticalAlign=middle;whiteSpace=wrap;rounded=0;" vertex="1" parent="YPrZ4P48iWF1rKAgXMPz-37">
          <mxGeometry x="10" y="35" width="90" height="30" as="geometry" />
        </mxCell>
        <mxCell id="YPrZ4P48iWF1rKAgXMPz-41" value="* Item" style="text;html=1;align=center;verticalAlign=middle;whiteSpace=wrap;rounded=0;" vertex="1" parent="YPrZ4P48iWF1rKAgXMPz-37">
          <mxGeometry x="10" y="52" width="90" height="30" as="geometry" />
        </mxCell>
        <mxCell id="YPrZ4P48iWF1rKAgXMPz-42" value="" style="group" connectable="0" vertex="1" parent="1">
          <mxGeometry x="200" y="180" width="100" height="82" as="geometry" />
        </mxCell>
        <mxCell id="YPrZ4P48iWF1rKAgXMPz-43" value="Producto" style="text;html=1;align=center;verticalAlign=middle;whiteSpace=wrap;rounded=0;" vertex="1" parent="YPrZ4P48iWF1rKAgXMPz-42">
          <mxGeometry width="90" height="30" as="geometry" />
        </mxCell>
        <mxCell id="YPrZ4P48iWF1rKAgXMPz-44" value="* Item" style="text;html=1;align=center;verticalAlign=middle;whiteSpace=wrap;rounded=0;" vertex="1" parent="YPrZ4P48iWF1rKAgXMPz-42">
          <mxGeometry x="10" y="20" width="90" height="30" as="geometry" />
        </mxCell>
        <mxCell id="YPrZ4P48iWF1rKAgXMPz-45" value="* Item" style="text;html=1;align=center;verticalAlign=middle;whiteSpace=wrap;rounded=0;" vertex="1" parent="YPrZ4P48iWF1rKAgXMPz-42">
          <mxGeometry x="10" y="35" width="90" height="30" as="geometry" />
        </mxCell>
        <mxCell id="YPrZ4P48iWF1rKAgXMPz-46" value="* Item" style="text;html=1;align=center;verticalAlign=middle;whiteSpace=wrap;rounded=0;" vertex="1" parent="YPrZ4P48iWF1rKAgXMPz-42">
          <mxGeometry x="10" y="52" width="90" height="30" as="geometry" />
        </mxCell>
        <mxCell id="YPrZ4P48iWF1rKAgXMPz-47" value="" style="group" connectable="0" vertex="1" parent="1">
          <mxGeometry x="200" y="258" width="100" height="82" as="geometry" />
        </mxCell>
        <mxCell id="YPrZ4P48iWF1rKAgXMPz-48" value="Producto" style="text;html=1;align=center;verticalAlign=middle;whiteSpace=wrap;rounded=0;" vertex="1" parent="YPrZ4P48iWF1rKAgXMPz-47">
          <mxGeometry width="90" height="30" as="geometry" />
        </mxCell>
        <mxCell id="YPrZ4P48iWF1rKAgXMPz-49" value="* Item" style="text;html=1;align=center;verticalAlign=middle;whiteSpace=wrap;rounded=0;" vertex="1" parent="YPrZ4P48iWF1rKAgXMPz-47">
          <mxGeometry x="10" y="20" width="90" height="30" as="geometry" />
        </mxCell>
        <mxCell id="YPrZ4P48iWF1rKAgXMPz-50" value="* Item" style="text;html=1;align=center;verticalAlign=middle;whiteSpace=wrap;rounded=0;" vertex="1" parent="YPrZ4P48iWF1rKAgXMPz-47">
          <mxGeometry x="10" y="35" width="90" height="30" as="geometry" />
        </mxCell>
        <mxCell id="YPrZ4P48iWF1rKAgXMPz-51" value="* Item" style="text;html=1;align=center;verticalAlign=middle;whiteSpace=wrap;rounded=0;" vertex="1" parent="YPrZ4P48iWF1rKAgXMPz-47">
          <mxGeometry x="10" y="52" width="90" height="30" as="geometry" />
        </mxCell>
        <mxCell id="YPrZ4P48iWF1rKAgXMPz-52" value="" style="group" connectable="0" vertex="1" parent="1">
          <mxGeometry x="310" y="180" width="100" height="82" as="geometry" />
        </mxCell>
        <mxCell id="YPrZ4P48iWF1rKAgXMPz-53" value="Producto" style="text;html=1;align=center;verticalAlign=middle;whiteSpace=wrap;rounded=0;" vertex="1" parent="YPrZ4P48iWF1rKAgXMPz-52">
          <mxGeometry width="90" height="30" as="geometry" />
        </mxCell>
        <mxCell id="YPrZ4P48iWF1rKAgXMPz-54" value="* Item" style="text;html=1;align=center;verticalAlign=middle;whiteSpace=wrap;rounded=0;" vertex="1" parent="YPrZ4P48iWF1rKAgXMPz-52">
          <mxGeometry x="10" y="20" width="90" height="30" as="geometry" />
        </mxCell>
        <mxCell id="YPrZ4P48iWF1rKAgXMPz-55" value="* Item" style="text;html=1;align=center;verticalAlign=middle;whiteSpace=wrap;rounded=0;" vertex="1" parent="YPrZ4P48iWF1rKAgXMPz-52">
          <mxGeometry x="10" y="35" width="90" height="30" as="geometry" />
        </mxCell>
        <mxCell id="YPrZ4P48iWF1rKAgXMPz-56" value="* Item" style="text;html=1;align=center;verticalAlign=middle;whiteSpace=wrap;rounded=0;" vertex="1" parent="YPrZ4P48iWF1rKAgXMPz-52">
          <mxGeometry x="10" y="52" width="90" height="30" as="geometry" />
        </mxCell>
        <mxCell id="YPrZ4P48iWF1rKAgXMPz-57" value="" style="group" connectable="0" vertex="1" parent="1">
          <mxGeometry x="310" y="258" width="100" height="82" as="geometry" />
        </mxCell>
        <mxCell id="YPrZ4P48iWF1rKAgXMPz-58" value="Producto" style="text;html=1;align=center;verticalAlign=middle;whiteSpace=wrap;rounded=0;" vertex="1" parent="YPrZ4P48iWF1rKAgXMPz-57">
          <mxGeometry width="90" height="30" as="geometry" />
        </mxCell>
        <mxCell id="YPrZ4P48iWF1rKAgXMPz-59" value="* Item" style="text;html=1;align=center;verticalAlign=middle;whiteSpace=wrap;rounded=0;" vertex="1" parent="YPrZ4P48iWF1rKAgXMPz-57">
          <mxGeometry x="10" y="20" width="90" height="30" as="geometry" />
        </mxCell>
        <mxCell id="YPrZ4P48iWF1rKAgXMPz-60" value="* Item" style="text;html=1;align=center;verticalAlign=middle;whiteSpace=wrap;rounded=0;" vertex="1" parent="YPrZ4P48iWF1rKAgXMPz-57">
          <mxGeometry x="10" y="35" width="90" height="30" as="geometry" />
        </mxCell>
        <mxCell id="YPrZ4P48iWF1rKAgXMPz-61" value="* Item" style="text;html=1;align=center;verticalAlign=middle;whiteSpace=wrap;rounded=0;" vertex="1" parent="YPrZ4P48iWF1rKAgXMPz-57">
          <mxGeometry x="10" y="52" width="90" height="30" as="geometry" />
        </mxCell>
        <mxCell id="YPrZ4P48iWF1rKAgXMPz-62" value="" style="group" connectable="0" vertex="1" parent="1">
          <mxGeometry x="420" y="180" width="100" height="82" as="geometry" />
        </mxCell>
        <mxCell id="YPrZ4P48iWF1rKAgXMPz-63" value="Producto" style="text;html=1;align=center;verticalAlign=middle;whiteSpace=wrap;rounded=0;" vertex="1" parent="YPrZ4P48iWF1rKAgXMPz-62">
          <mxGeometry width="90" height="30" as="geometry" />
        </mxCell>
        <mxCell id="YPrZ4P48iWF1rKAgXMPz-64" value="* Item" style="text;html=1;align=center;verticalAlign=middle;whiteSpace=wrap;rounded=0;" vertex="1" parent="YPrZ4P48iWF1rKAgXMPz-62">
          <mxGeometry x="10" y="20" width="90" height="30" as="geometry" />
        </mxCell>
        <mxCell id="YPrZ4P48iWF1rKAgXMPz-65" value="* Item" style="text;html=1;align=center;verticalAlign=middle;whiteSpace=wrap;rounded=0;" vertex="1" parent="YPrZ4P48iWF1rKAgXMPz-62">
          <mxGeometry x="10" y="35" width="90" height="30" as="geometry" />
        </mxCell>
        <mxCell id="YPrZ4P48iWF1rKAgXMPz-66" value="* Item" style="text;html=1;align=center;verticalAlign=middle;whiteSpace=wrap;rounded=0;" vertex="1" parent="YPrZ4P48iWF1rKAgXMPz-62">
          <mxGeometry x="10" y="52" width="90" height="30" as="geometry" />
        </mxCell>
        <mxCell id="YPrZ4P48iWF1rKAgXMPz-67" value="" style="group" connectable="0" vertex="1" parent="1">
          <mxGeometry x="420" y="258" width="100" height="82" as="geometry" />
        </mxCell>
        <mxCell id="YPrZ4P48iWF1rKAgXMPz-68" value="Producto" style="text;html=1;align=center;verticalAlign=middle;whiteSpace=wrap;rounded=0;" vertex="1" parent="YPrZ4P48iWF1rKAgXMPz-67">
          <mxGeometry width="90" height="30" as="geometry" />
        </mxCell>
        <mxCell id="YPrZ4P48iWF1rKAgXMPz-69" value="* Item" style="text;html=1;align=center;verticalAlign=middle;whiteSpace=wrap;rounded=0;" vertex="1" parent="YPrZ4P48iWF1rKAgXMPz-67">
          <mxGeometry x="10" y="20" width="90" height="30" as="geometry" />
        </mxCell>
        <mxCell id="YPrZ4P48iWF1rKAgXMPz-70" value="* Item" style="text;html=1;align=center;verticalAlign=middle;whiteSpace=wrap;rounded=0;" vertex="1" parent="YPrZ4P48iWF1rKAgXMPz-67">
          <mxGeometry x="10" y="35" width="90" height="30" as="geometry" />
        </mxCell>
        <mxCell id="YPrZ4P48iWF1rKAgXMPz-71" value="* Item" style="text;html=1;align=center;verticalAlign=middle;whiteSpace=wrap;rounded=0;" vertex="1" parent="YPrZ4P48iWF1rKAgXMPz-67">
          <mxGeometry x="10" y="52" width="90" height="30" as="geometry" />
        </mxCell>
        <mxCell id="YPrZ4P48iWF1rKAgXMPz-72" value="" style="ellipse;shape=doubleEllipse;whiteSpace=wrap;html=1;aspect=fixed;" vertex="1" parent="1">
          <mxGeometry x="505" y="570" width="20" height="20" as="geometry" />
        </mxCell>
        <mxCell id="YPrZ4P48iWF1rKAgXMPz-73" value="" style="ellipse;shape=doubleEllipse;whiteSpace=wrap;html=1;aspect=fixed;" vertex="1" parent="1">
          <mxGeometry x="540" y="570" width="20" height="20" as="geometry" />
        </mxCell>
        <mxCell id="YPrZ4P48iWF1rKAgXMPz-74" value="" style="ellipse;shape=doubleEllipse;whiteSpace=wrap;html=1;aspect=fixed;" vertex="1" parent="1">
          <mxGeometry x="575" y="570" width="20" height="20" as="geometry" />
        </mxCell>
        <mxCell id="YPrZ4P48iWF1rKAgXMPz-75" value="" style="triangle;whiteSpace=wrap;html=1;" vertex="1" parent="1">
          <mxGeometry x="1030" y="470" width="15" height="20" as="geometry" />
        </mxCell>
        <mxCell id="YPrZ4P48iWF1rKAgXMPz-76" value="" style="triangle;whiteSpace=wrap;html=1;rotation=-180;" vertex="1" parent="1">
          <mxGeometry x="50" y="470" width="15" height="20" as="geometry" />
        </mxCell>
        <mxCell id="YPrZ4P48iWF1rKAgXMPz-78" value="" style="verticalLabelPosition=bottom;shadow=0;dashed=0;align=center;html=1;verticalAlign=top;strokeWidth=1;shape=mxgraph.mockup.graphics.simpleIcon;strokeColor=#999999;" vertex="1" parent="1">
          <mxGeometry x="100" y="630" width="430" height="530" as="geometry" />
        </mxCell>
        <mxCell id="YPrZ4P48iWF1rKAgXMPz-79" value="" style="verticalLabelPosition=bottom;shadow=0;dashed=0;align=center;html=1;verticalAlign=top;strokeWidth=1;shape=mxgraph.mockup.graphics.simpleIcon;strokeColor=#999999;" vertex="1" parent="1">
          <mxGeometry x="570" y="630" width="180" height="530" as="geometry" />
        </mxCell>
        <mxCell id="YPrZ4P48iWF1rKAgXMPz-80" value="" style="verticalLabelPosition=bottom;shadow=0;dashed=0;align=center;html=1;verticalAlign=top;strokeWidth=1;shape=mxgraph.mockup.graphics.simpleIcon;strokeColor=#999999;" vertex="1" parent="1">
          <mxGeometry x="770" y="630" width="180" height="530" as="geometry" />
        </mxCell>
        <mxCell id="YPrZ4P48iWF1rKAgXMPz-81" value="" style="verticalLabelPosition=bottom;shadow=0;dashed=0;align=center;html=1;verticalAlign=top;strokeWidth=1;shape=mxgraph.mockup.graphics.simpleIcon;strokeColor=#999999;" vertex="1" parent="1">
          <mxGeometry x="100" y="1180" width="430" height="180" as="geometry" />
        </mxCell>
        <mxCell id="YPrZ4P48iWF1rKAgXMPz-82" value="" style="verticalLabelPosition=bottom;shadow=0;dashed=0;align=center;html=1;verticalAlign=top;strokeWidth=1;shape=mxgraph.mockup.graphics.simpleIcon;strokeColor=#999999;" vertex="1" parent="1">
          <mxGeometry x="550" y="1180" width="410" height="180" as="geometry" />
        </mxCell>
        <mxCell id="YPrZ4P48iWF1rKAgXMPz-84" value="Destacados" style="text;html=1;align=center;verticalAlign=middle;whiteSpace=wrap;rounded=0;" vertex="1" parent="1">
          <mxGeometry x="80" y="1390" width="60" height="30" as="geometry" />
        </mxCell>
        <mxCell id="YPrZ4P48iWF1rKAgXMPz-90" value="" style="group" connectable="0" vertex="1" parent="1">
          <mxGeometry x="79" y="1430" width="171" height="236" as="geometry" />
        </mxCell>
        <mxCell id="YPrZ4P48iWF1rKAgXMPz-85" value="" style="verticalLabelPosition=bottom;shadow=0;dashed=0;align=center;html=1;verticalAlign=top;strokeWidth=1;shape=mxgraph.mockup.graphics.simpleIcon;strokeColor=#999999;" vertex="1" parent="YPrZ4P48iWF1rKAgXMPz-90">
          <mxGeometry x="21" width="110" height="80" as="geometry" />
        </mxCell>
        <mxCell id="YPrZ4P48iWF1rKAgXMPz-86" value="&lt;span style=&quot;color: rgba(0, 0, 0, 0.8); font-family: &amp;quot;Source Sans Pro&amp;quot;, sans-serif; font-size: 10px; letter-spacing: -0.0486px; background-color: rgb(255, 255, 255);&quot;&gt;Lorem ipsum dolor sit amet consectetur adipiscing elit ligula, conubia nisl curabitur fringilla pulvinar vitae taciti fames tortor, bibendum eget velit pretium orci ullamcorper enim.&amp;nbsp;&lt;/span&gt;" style="text;html=1;align=left;verticalAlign=middle;whiteSpace=wrap;rounded=0;fontSize=10;" vertex="1" parent="YPrZ4P48iWF1rKAgXMPz-90">
          <mxGeometry x="11" y="70" width="160" height="110" as="geometry" />
        </mxCell>
        <mxCell id="YPrZ4P48iWF1rKAgXMPz-87" value="$1000" style="text;html=1;align=center;verticalAlign=middle;whiteSpace=wrap;rounded=0;" vertex="1" parent="YPrZ4P48iWF1rKAgXMPz-90">
          <mxGeometry x="31" y="170" width="60" height="30" as="geometry" />
        </mxCell>
        <mxCell id="YPrZ4P48iWF1rKAgXMPz-88" value="Agregar" style="strokeWidth=1;shadow=0;dashed=0;align=center;html=1;shape=mxgraph.mockup.buttons.button;strokeColor=#666666;fontColor=#ffffff;mainText=;buttonStyle=round;fontSize=17;fontStyle=1;fillColor=#008cff;whiteSpace=wrap;" vertex="1" parent="YPrZ4P48iWF1rKAgXMPz-90">
          <mxGeometry y="206" width="147" height="30" as="geometry" />
        </mxCell>
        <mxCell id="YPrZ4P48iWF1rKAgXMPz-89" value="" style="shape=sumEllipse;perimeter=ellipsePerimeter;whiteSpace=wrap;html=1;backgroundOutline=1;" vertex="1" parent="YPrZ4P48iWF1rKAgXMPz-90">
          <mxGeometry x="117" y="211" width="20" height="20" as="geometry" />
        </mxCell>
        <mxCell id="YPrZ4P48iWF1rKAgXMPz-91" value="" style="group" connectable="0" vertex="1" parent="1">
          <mxGeometry x="264" y="1430" width="171" height="236" as="geometry" />
        </mxCell>
        <mxCell id="YPrZ4P48iWF1rKAgXMPz-92" value="" style="verticalLabelPosition=bottom;shadow=0;dashed=0;align=center;html=1;verticalAlign=top;strokeWidth=1;shape=mxgraph.mockup.graphics.simpleIcon;strokeColor=#999999;" vertex="1" parent="YPrZ4P48iWF1rKAgXMPz-91">
          <mxGeometry x="21" width="110" height="80" as="geometry" />
        </mxCell>
        <mxCell id="YPrZ4P48iWF1rKAgXMPz-93" value="&lt;span style=&quot;color: rgba(0, 0, 0, 0.8); font-family: &amp;quot;Source Sans Pro&amp;quot;, sans-serif; font-size: 10px; letter-spacing: -0.0486px; background-color: rgb(255, 255, 255);&quot;&gt;Lorem ipsum dolor sit amet consectetur adipiscing elit ligula, conubia nisl curabitur fringilla pulvinar vitae taciti fames tortor, bibendum eget velit pretium orci ullamcorper enim.&amp;nbsp;&lt;/span&gt;" style="text;html=1;align=left;verticalAlign=middle;whiteSpace=wrap;rounded=0;fontSize=10;" vertex="1" parent="YPrZ4P48iWF1rKAgXMPz-91">
          <mxGeometry x="11" y="70" width="160" height="110" as="geometry" />
        </mxCell>
        <mxCell id="YPrZ4P48iWF1rKAgXMPz-94" value="$1000" style="text;html=1;align=center;verticalAlign=middle;whiteSpace=wrap;rounded=0;" vertex="1" parent="YPrZ4P48iWF1rKAgXMPz-91">
          <mxGeometry x="31" y="170" width="60" height="30" as="geometry" />
        </mxCell>
        <mxCell id="YPrZ4P48iWF1rKAgXMPz-95" value="Agregar" style="strokeWidth=1;shadow=0;dashed=0;align=center;html=1;shape=mxgraph.mockup.buttons.button;strokeColor=#666666;fontColor=#ffffff;mainText=;buttonStyle=round;fontSize=17;fontStyle=1;fillColor=#008cff;whiteSpace=wrap;" vertex="1" parent="YPrZ4P48iWF1rKAgXMPz-91">
          <mxGeometry y="206" width="147" height="30" as="geometry" />
        </mxCell>
        <mxCell id="YPrZ4P48iWF1rKAgXMPz-96" value="" style="shape=sumEllipse;perimeter=ellipsePerimeter;whiteSpace=wrap;html=1;backgroundOutline=1;" vertex="1" parent="YPrZ4P48iWF1rKAgXMPz-91">
          <mxGeometry x="117" y="211" width="20" height="20" as="geometry" />
        </mxCell>
        <mxCell id="YPrZ4P48iWF1rKAgXMPz-97" value="" style="group;fontStyle=1" connectable="0" vertex="1" parent="1">
          <mxGeometry x="450" y="1430" width="171" height="236" as="geometry" />
        </mxCell>
        <mxCell id="YPrZ4P48iWF1rKAgXMPz-98" value="" style="verticalLabelPosition=bottom;shadow=0;dashed=0;align=center;html=1;verticalAlign=top;strokeWidth=1;shape=mxgraph.mockup.graphics.simpleIcon;strokeColor=#999999;" vertex="1" parent="YPrZ4P48iWF1rKAgXMPz-97">
          <mxGeometry x="21" width="110" height="80" as="geometry" />
        </mxCell>
        <mxCell id="YPrZ4P48iWF1rKAgXMPz-99" value="&lt;span style=&quot;color: rgba(0, 0, 0, 0.8); font-family: &amp;quot;Source Sans Pro&amp;quot;, sans-serif; font-size: 10px; letter-spacing: -0.0486px; background-color: rgb(255, 255, 255);&quot;&gt;Lorem ipsum dolor sit amet consectetur adipiscing elit ligula, conubia nisl curabitur fringilla pulvinar vitae taciti fames tortor, bibendum eget velit pretium orci ullamcorper enim.&amp;nbsp;&lt;/span&gt;" style="text;html=1;align=left;verticalAlign=middle;whiteSpace=wrap;rounded=0;fontSize=10;" vertex="1" parent="YPrZ4P48iWF1rKAgXMPz-97">
          <mxGeometry x="11" y="70" width="160" height="110" as="geometry" />
        </mxCell>
        <mxCell id="YPrZ4P48iWF1rKAgXMPz-100" value="$1000" style="text;html=1;align=center;verticalAlign=middle;whiteSpace=wrap;rounded=0;" vertex="1" parent="YPrZ4P48iWF1rKAgXMPz-97">
          <mxGeometry x="31" y="170" width="60" height="30" as="geometry" />
        </mxCell>
        <mxCell id="YPrZ4P48iWF1rKAgXMPz-101" value="Agregar" style="strokeWidth=1;shadow=0;dashed=0;align=center;html=1;shape=mxgraph.mockup.buttons.button;strokeColor=#666666;fontColor=#ffffff;mainText=;buttonStyle=round;fontSize=17;fontStyle=1;fillColor=#008cff;whiteSpace=wrap;" vertex="1" parent="YPrZ4P48iWF1rKAgXMPz-97">
          <mxGeometry y="206" width="147" height="30" as="geometry" />
        </mxCell>
        <mxCell id="YPrZ4P48iWF1rKAgXMPz-102" value="" style="shape=sumEllipse;perimeter=ellipsePerimeter;whiteSpace=wrap;html=1;backgroundOutline=1;" vertex="1" parent="YPrZ4P48iWF1rKAgXMPz-97">
          <mxGeometry x="117" y="211" width="20" height="20" as="geometry" />
        </mxCell>
        <mxCell id="YPrZ4P48iWF1rKAgXMPz-103" value="" style="group;fontStyle=1" connectable="0" vertex="1" parent="1">
          <mxGeometry x="820" y="1430" width="171" height="236" as="geometry" />
        </mxCell>
        <mxCell id="YPrZ4P48iWF1rKAgXMPz-104" value="" style="verticalLabelPosition=bottom;shadow=0;dashed=0;align=center;html=1;verticalAlign=top;strokeWidth=1;shape=mxgraph.mockup.graphics.simpleIcon;strokeColor=#999999;" vertex="1" parent="YPrZ4P48iWF1rKAgXMPz-103">
          <mxGeometry x="21" width="110" height="80" as="geometry" />
        </mxCell>
        <mxCell id="YPrZ4P48iWF1rKAgXMPz-105" value="&lt;span style=&quot;color: rgba(0, 0, 0, 0.8); font-family: &amp;quot;Source Sans Pro&amp;quot;, sans-serif; font-size: 10px; letter-spacing: -0.0486px; background-color: rgb(255, 255, 255);&quot;&gt;Lorem ipsum dolor sit amet consectetur adipiscing elit ligula, conubia nisl curabitur fringilla pulvinar vitae taciti fames tortor, bibendum eget velit pretium orci ullamcorper enim.&amp;nbsp;&lt;/span&gt;" style="text;html=1;align=left;verticalAlign=middle;whiteSpace=wrap;rounded=0;fontSize=10;" vertex="1" parent="YPrZ4P48iWF1rKAgXMPz-103">
          <mxGeometry x="11" y="70" width="160" height="110" as="geometry" />
        </mxCell>
        <mxCell id="YPrZ4P48iWF1rKAgXMPz-106" value="$1000" style="text;html=1;align=center;verticalAlign=middle;whiteSpace=wrap;rounded=0;" vertex="1" parent="YPrZ4P48iWF1rKAgXMPz-103">
          <mxGeometry x="31" y="170" width="60" height="30" as="geometry" />
        </mxCell>
        <mxCell id="YPrZ4P48iWF1rKAgXMPz-107" value="Agregar" style="strokeWidth=1;shadow=0;dashed=0;align=center;html=1;shape=mxgraph.mockup.buttons.button;strokeColor=#666666;fontColor=#ffffff;mainText=;buttonStyle=round;fontSize=17;fontStyle=1;fillColor=#008cff;whiteSpace=wrap;" vertex="1" parent="YPrZ4P48iWF1rKAgXMPz-103">
          <mxGeometry y="206" width="147" height="30" as="geometry" />
        </mxCell>
        <mxCell id="YPrZ4P48iWF1rKAgXMPz-108" value="" style="shape=sumEllipse;perimeter=ellipsePerimeter;whiteSpace=wrap;html=1;backgroundOutline=1;" vertex="1" parent="YPrZ4P48iWF1rKAgXMPz-103">
          <mxGeometry x="117" y="211" width="20" height="20" as="geometry" />
        </mxCell>
        <mxCell id="YPrZ4P48iWF1rKAgXMPz-109" value="" style="group;fontStyle=1" connectable="0" vertex="1" parent="1">
          <mxGeometry x="635" y="1430" width="171" height="236" as="geometry" />
        </mxCell>
        <mxCell id="YPrZ4P48iWF1rKAgXMPz-110" value="" style="verticalLabelPosition=bottom;shadow=0;dashed=0;align=center;html=1;verticalAlign=top;strokeWidth=1;shape=mxgraph.mockup.graphics.simpleIcon;strokeColor=#999999;" vertex="1" parent="YPrZ4P48iWF1rKAgXMPz-109">
          <mxGeometry x="21" width="110" height="80" as="geometry" />
        </mxCell>
        <mxCell id="YPrZ4P48iWF1rKAgXMPz-111" value="&lt;span style=&quot;color: rgba(0, 0, 0, 0.8); font-family: &amp;quot;Source Sans Pro&amp;quot;, sans-serif; font-size: 10px; letter-spacing: -0.0486px; background-color: rgb(255, 255, 255);&quot;&gt;Lorem ipsum dolor sit amet consectetur adipiscing elit ligula, conubia nisl curabitur fringilla pulvinar vitae taciti fames tortor, bibendum eget velit pretium orci ullamcorper enim.&amp;nbsp;&lt;/span&gt;" style="text;html=1;align=left;verticalAlign=middle;whiteSpace=wrap;rounded=0;fontSize=10;" vertex="1" parent="YPrZ4P48iWF1rKAgXMPz-109">
          <mxGeometry x="11" y="70" width="160" height="110" as="geometry" />
        </mxCell>
        <mxCell id="YPrZ4P48iWF1rKAgXMPz-112" value="$1000" style="text;html=1;align=center;verticalAlign=middle;whiteSpace=wrap;rounded=0;" vertex="1" parent="YPrZ4P48iWF1rKAgXMPz-109">
          <mxGeometry x="31" y="170" width="60" height="30" as="geometry" />
        </mxCell>
        <mxCell id="YPrZ4P48iWF1rKAgXMPz-113" value="Agregar" style="strokeWidth=1;shadow=0;dashed=0;align=center;html=1;shape=mxgraph.mockup.buttons.button;strokeColor=#666666;fontColor=#ffffff;mainText=;buttonStyle=round;fontSize=17;fontStyle=1;fillColor=#008cff;whiteSpace=wrap;" vertex="1" parent="YPrZ4P48iWF1rKAgXMPz-109">
          <mxGeometry y="206" width="147" height="30" as="geometry" />
        </mxCell>
        <mxCell id="YPrZ4P48iWF1rKAgXMPz-114" value="" style="shape=sumEllipse;perimeter=ellipsePerimeter;whiteSpace=wrap;html=1;backgroundOutline=1;" vertex="1" parent="YPrZ4P48iWF1rKAgXMPz-109">
          <mxGeometry x="117" y="211" width="20" height="20" as="geometry" />
        </mxCell>
        <mxCell id="YPrZ4P48iWF1rKAgXMPz-115" value="Areas a Buscar" style="text;html=1;align=center;verticalAlign=middle;whiteSpace=wrap;rounded=0;" vertex="1" parent="1">
          <mxGeometry x="80" y="1710" width="110" height="30" as="geometry" />
        </mxCell>
        <mxCell id="YPrZ4P48iWF1rKAgXMPz-125" value="" style="group" connectable="0" vertex="1" parent="1">
          <mxGeometry x="90" y="1750" width="165" height="120" as="geometry" />
        </mxCell>
        <mxCell id="YPrZ4P48iWF1rKAgXMPz-116" value="" style="verticalLabelPosition=bottom;shadow=0;dashed=0;align=center;html=1;verticalAlign=top;strokeWidth=1;shape=mxgraph.mockup.graphics.simpleIcon;strokeColor=#999999;" vertex="1" parent="YPrZ4P48iWF1rKAgXMPz-125">
          <mxGeometry width="165" height="120" as="geometry" />
        </mxCell>
        <mxCell id="YPrZ4P48iWF1rKAgXMPz-123" value="" style="shape=sumEllipse;perimeter=ellipsePerimeter;whiteSpace=wrap;html=1;backgroundOutline=1;" vertex="1" parent="YPrZ4P48iWF1rKAgXMPz-125">
          <mxGeometry x="60" y="37.5" width="45" height="45" as="geometry" />
        </mxCell>
        <mxCell id="YPrZ4P48iWF1rKAgXMPz-126" value="" style="group" connectable="0" vertex="1" parent="1">
          <mxGeometry x="260" y="1750" width="165" height="120" as="geometry" />
        </mxCell>
        <mxCell id="YPrZ4P48iWF1rKAgXMPz-127" value="" style="verticalLabelPosition=bottom;shadow=0;dashed=0;align=center;html=1;verticalAlign=top;strokeWidth=1;shape=mxgraph.mockup.graphics.simpleIcon;strokeColor=#999999;" vertex="1" parent="YPrZ4P48iWF1rKAgXMPz-126">
          <mxGeometry width="165" height="120" as="geometry" />
        </mxCell>
        <mxCell id="YPrZ4P48iWF1rKAgXMPz-128" value="" style="shape=sumEllipse;perimeter=ellipsePerimeter;whiteSpace=wrap;html=1;backgroundOutline=1;" vertex="1" parent="YPrZ4P48iWF1rKAgXMPz-126">
          <mxGeometry x="60" y="37.5" width="45" height="45" as="geometry" />
        </mxCell>
        <mxCell id="YPrZ4P48iWF1rKAgXMPz-129" value="" style="group" connectable="0" vertex="1" parent="1">
          <mxGeometry x="602.5" y="1750" width="165" height="120" as="geometry" />
        </mxCell>
        <mxCell id="YPrZ4P48iWF1rKAgXMPz-130" value="" style="verticalLabelPosition=bottom;shadow=0;dashed=0;align=center;html=1;verticalAlign=top;strokeWidth=1;shape=mxgraph.mockup.graphics.simpleIcon;strokeColor=#999999;" vertex="1" parent="YPrZ4P48iWF1rKAgXMPz-129">
          <mxGeometry width="165" height="120" as="geometry" />
        </mxCell>
        <mxCell id="YPrZ4P48iWF1rKAgXMPz-131" value="" style="shape=sumEllipse;perimeter=ellipsePerimeter;whiteSpace=wrap;html=1;backgroundOutline=1;" vertex="1" parent="YPrZ4P48iWF1rKAgXMPz-129">
          <mxGeometry x="60" y="37.5" width="45" height="45" as="geometry" />
        </mxCell>
        <mxCell id="YPrZ4P48iWF1rKAgXMPz-132" value="" style="group" connectable="0" vertex="1" parent="1">
          <mxGeometry x="430" y="1750" width="165" height="120" as="geometry" />
        </mxCell>
        <mxCell id="YPrZ4P48iWF1rKAgXMPz-133" value="" style="verticalLabelPosition=bottom;shadow=0;dashed=0;align=center;html=1;verticalAlign=top;strokeWidth=1;shape=mxgraph.mockup.graphics.simpleIcon;strokeColor=#999999;" vertex="1" parent="YPrZ4P48iWF1rKAgXMPz-132">
          <mxGeometry width="165" height="120" as="geometry" />
        </mxCell>
        <mxCell id="YPrZ4P48iWF1rKAgXMPz-134" value="" style="shape=sumEllipse;perimeter=ellipsePerimeter;whiteSpace=wrap;html=1;backgroundOutline=1;" vertex="1" parent="YPrZ4P48iWF1rKAgXMPz-132">
          <mxGeometry x="60" y="37.5" width="45" height="45" as="geometry" />
        </mxCell>
        <mxCell id="YPrZ4P48iWF1rKAgXMPz-135" value="" style="group" connectable="0" vertex="1" parent="1">
          <mxGeometry x="780" y="1750" width="165" height="120" as="geometry" />
        </mxCell>
        <mxCell id="YPrZ4P48iWF1rKAgXMPz-136" value="" style="verticalLabelPosition=bottom;shadow=0;dashed=0;align=center;html=1;verticalAlign=top;strokeWidth=1;shape=mxgraph.mockup.graphics.simpleIcon;strokeColor=#999999;" vertex="1" parent="YPrZ4P48iWF1rKAgXMPz-135">
          <mxGeometry width="165" height="120" as="geometry" />
        </mxCell>
        <mxCell id="YPrZ4P48iWF1rKAgXMPz-137" value="" style="shape=sumEllipse;perimeter=ellipsePerimeter;whiteSpace=wrap;html=1;backgroundOutline=1;" vertex="1" parent="YPrZ4P48iWF1rKAgXMPz-135">
          <mxGeometry x="60" y="37.5" width="45" height="45" as="geometry" />
        </mxCell>
        <mxCell id="YPrZ4P48iWF1rKAgXMPz-138" value="" style="group" connectable="0" vertex="1" parent="1">
          <mxGeometry x="90" y="1880" width="165" height="120" as="geometry" />
        </mxCell>
        <mxCell id="YPrZ4P48iWF1rKAgXMPz-139" value="" style="verticalLabelPosition=bottom;shadow=0;dashed=0;align=center;html=1;verticalAlign=top;strokeWidth=1;shape=mxgraph.mockup.graphics.simpleIcon;strokeColor=#999999;" vertex="1" parent="YPrZ4P48iWF1rKAgXMPz-138">
          <mxGeometry width="165" height="120" as="geometry" />
        </mxCell>
        <mxCell id="YPrZ4P48iWF1rKAgXMPz-140" value="" style="shape=sumEllipse;perimeter=ellipsePerimeter;whiteSpace=wrap;html=1;backgroundOutline=1;" vertex="1" parent="YPrZ4P48iWF1rKAgXMPz-138">
          <mxGeometry x="60" y="37.5" width="45" height="45" as="geometry" />
        </mxCell>
        <mxCell id="YPrZ4P48iWF1rKAgXMPz-141" value="" style="group" connectable="0" vertex="1" parent="1">
          <mxGeometry x="260" y="1880" width="165" height="120" as="geometry" />
        </mxCell>
        <mxCell id="YPrZ4P48iWF1rKAgXMPz-142" value="" style="verticalLabelPosition=bottom;shadow=0;dashed=0;align=center;html=1;verticalAlign=top;strokeWidth=1;shape=mxgraph.mockup.graphics.simpleIcon;strokeColor=#999999;" vertex="1" parent="YPrZ4P48iWF1rKAgXMPz-141">
          <mxGeometry width="165" height="120" as="geometry" />
        </mxCell>
        <mxCell id="YPrZ4P48iWF1rKAgXMPz-143" value="" style="shape=sumEllipse;perimeter=ellipsePerimeter;whiteSpace=wrap;html=1;backgroundOutline=1;" vertex="1" parent="YPrZ4P48iWF1rKAgXMPz-141">
          <mxGeometry x="60" y="37.5" width="45" height="45" as="geometry" />
        </mxCell>
        <mxCell id="YPrZ4P48iWF1rKAgXMPz-144" value="" style="group" connectable="0" vertex="1" parent="1">
          <mxGeometry x="602.5" y="1880" width="165" height="120" as="geometry" />
        </mxCell>
        <mxCell id="YPrZ4P48iWF1rKAgXMPz-145" value="" style="verticalLabelPosition=bottom;shadow=0;dashed=0;align=center;html=1;verticalAlign=top;strokeWidth=1;shape=mxgraph.mockup.graphics.simpleIcon;strokeColor=#999999;" vertex="1" parent="YPrZ4P48iWF1rKAgXMPz-144">
          <mxGeometry width="165" height="120" as="geometry" />
        </mxCell>
        <mxCell id="YPrZ4P48iWF1rKAgXMPz-146" value="" style="shape=sumEllipse;perimeter=ellipsePerimeter;whiteSpace=wrap;html=1;backgroundOutline=1;" vertex="1" parent="YPrZ4P48iWF1rKAgXMPz-144">
          <mxGeometry x="60" y="37.5" width="45" height="45" as="geometry" />
        </mxCell>
        <mxCell id="YPrZ4P48iWF1rKAgXMPz-147" value="" style="group" connectable="0" vertex="1" parent="1">
          <mxGeometry x="430" y="1880" width="165" height="120" as="geometry" />
        </mxCell>
        <mxCell id="YPrZ4P48iWF1rKAgXMPz-148" value="" style="verticalLabelPosition=bottom;shadow=0;dashed=0;align=center;html=1;verticalAlign=top;strokeWidth=1;shape=mxgraph.mockup.graphics.simpleIcon;strokeColor=#999999;" vertex="1" parent="YPrZ4P48iWF1rKAgXMPz-147">
          <mxGeometry width="165" height="120" as="geometry" />
        </mxCell>
        <mxCell id="YPrZ4P48iWF1rKAgXMPz-149" value="" style="shape=sumEllipse;perimeter=ellipsePerimeter;whiteSpace=wrap;html=1;backgroundOutline=1;" vertex="1" parent="YPrZ4P48iWF1rKAgXMPz-147">
          <mxGeometry x="60" y="37.5" width="45" height="45" as="geometry" />
        </mxCell>
        <mxCell id="YPrZ4P48iWF1rKAgXMPz-150" value="" style="group" connectable="0" vertex="1" parent="1">
          <mxGeometry x="780" y="1880" width="165" height="120" as="geometry" />
        </mxCell>
        <mxCell id="YPrZ4P48iWF1rKAgXMPz-151" value="" style="verticalLabelPosition=bottom;shadow=0;dashed=0;align=center;html=1;verticalAlign=top;strokeWidth=1;shape=mxgraph.mockup.graphics.simpleIcon;strokeColor=#999999;" vertex="1" parent="YPrZ4P48iWF1rKAgXMPz-150">
          <mxGeometry width="165" height="120" as="geometry" />
        </mxCell>
        <mxCell id="YPrZ4P48iWF1rKAgXMPz-152" value="" style="shape=sumEllipse;perimeter=ellipsePerimeter;whiteSpace=wrap;html=1;backgroundOutline=1;" vertex="1" parent="YPrZ4P48iWF1rKAgXMPz-150">
          <mxGeometry x="60" y="37.5" width="45" height="45" as="geometry" />
        </mxCell>
        <mxCell id="YPrZ4P48iWF1rKAgXMPz-153" value="Contacto" style="text;html=1;align=center;verticalAlign=middle;whiteSpace=wrap;rounded=0;" vertex="1" parent="1">
          <mxGeometry x="245" y="2040" width="110" height="30" as="geometry" />
        </mxCell>
        <mxCell id="YPrZ4P48iWF1rKAgXMPz-156" value="datos del sitio" style="text;html=1;align=center;verticalAlign=middle;whiteSpace=wrap;rounded=0;" vertex="1" parent="1">
          <mxGeometry x="245" y="2070" width="110" height="30" as="geometry" />
        </mxCell>
        <mxCell id="YPrZ4P48iWF1rKAgXMPz-157" value="datos del sitio" style="text;html=1;align=center;verticalAlign=middle;whiteSpace=wrap;rounded=0;" vertex="1" parent="1">
          <mxGeometry x="245" y="2092" width="110" height="30" as="geometry" />
        </mxCell>
        <mxCell id="YPrZ4P48iWF1rKAgXMPz-158" value="datos del sitio" style="text;html=1;align=center;verticalAlign=middle;whiteSpace=wrap;rounded=0;" vertex="1" parent="1">
          <mxGeometry x="245" y="2114" width="110" height="30" as="geometry" />
        </mxCell>
        <mxCell id="YPrZ4P48iWF1rKAgXMPz-159" value="datos del sitio" style="text;html=1;align=center;verticalAlign=middle;whiteSpace=wrap;rounded=0;" vertex="1" parent="1">
          <mxGeometry x="245" y="2136" width="110" height="30" as="geometry" />
        </mxCell>
        <mxCell id="YPrZ4P48iWF1rKAgXMPz-160" value="datos del sitio" style="text;html=1;align=center;verticalAlign=middle;whiteSpace=wrap;rounded=0;" vertex="1" parent="1">
          <mxGeometry x="245" y="2158" width="110" height="30" as="geometry" />
        </mxCell>
        <mxCell id="YPrZ4P48iWF1rKAgXMPz-161" value="datos del sitio" style="text;html=1;align=center;verticalAlign=middle;whiteSpace=wrap;rounded=0;" vertex="1" parent="1">
          <mxGeometry x="245" y="2180" width="110" height="30" as="geometry" />
        </mxCell>
        <mxCell id="YPrZ4P48iWF1rKAgXMPz-162" value="datos del sitio" style="text;html=1;align=center;verticalAlign=middle;whiteSpace=wrap;rounded=0;" vertex="1" parent="1">
          <mxGeometry x="540" y="2070" width="110" height="30" as="geometry" />
        </mxCell>
        <mxCell id="YPrZ4P48iWF1rKAgXMPz-163" value="datos del sitio" style="text;html=1;align=center;verticalAlign=middle;whiteSpace=wrap;rounded=0;" vertex="1" parent="1">
          <mxGeometry x="540" y="2092" width="110" height="30" as="geometry" />
        </mxCell>
        <mxCell id="YPrZ4P48iWF1rKAgXMPz-164" value="datos del sitio" style="text;html=1;align=center;verticalAlign=middle;whiteSpace=wrap;rounded=0;" vertex="1" parent="1">
          <mxGeometry x="540" y="2114" width="110" height="30" as="geometry" />
        </mxCell>
        <mxCell id="YPrZ4P48iWF1rKAgXMPz-165" value="datos del sitio" style="text;html=1;align=center;verticalAlign=middle;whiteSpace=wrap;rounded=0;" vertex="1" parent="1">
          <mxGeometry x="540" y="2136" width="110" height="30" as="geometry" />
        </mxCell>
        <mxCell id="YPrZ4P48iWF1rKAgXMPz-166" value="datos del sitio" style="text;html=1;align=center;verticalAlign=middle;whiteSpace=wrap;rounded=0;" vertex="1" parent="1">
          <mxGeometry x="540" y="2158" width="110" height="30" as="geometry" />
        </mxCell>
        <mxCell id="YPrZ4P48iWF1rKAgXMPz-167" value="Contacto WEB" style="text;html=1;align=center;verticalAlign=middle;whiteSpace=wrap;rounded=0;" vertex="1" parent="1">
          <mxGeometry x="540" y="2040" width="110" height="30" as="geometry" />
        </mxCell>
        <mxCell id="ZyAtSVCC6lzZeVUkMO0P-6" value="" style="shape=sumEllipse;perimeter=ellipsePerimeter;whiteSpace=wrap;html=1;backgroundOutline=1;" vertex="1" parent="1">
          <mxGeometry x="210" y="2220" width="26" height="26" as="geometry" />
        </mxCell>
        <mxCell id="ZyAtSVCC6lzZeVUkMO0P-7" value="" style="shape=sumEllipse;perimeter=ellipsePerimeter;whiteSpace=wrap;html=1;backgroundOutline=1;" vertex="1" parent="1">
          <mxGeometry x="320" y="2220" width="26" height="26" as="geometry" />
        </mxCell>
        <mxCell id="ZyAtSVCC6lzZeVUkMO0P-8" value="" style="shape=sumEllipse;perimeter=ellipsePerimeter;whiteSpace=wrap;html=1;backgroundOutline=1;" vertex="1" parent="1">
          <mxGeometry x="265" y="2220" width="26" height="26" as="geometry" />
        </mxCell>
      </root>
    </mxGraphModel>
  </diagram>
</mxfile>
